<mxfile host="app.diagrams.net" agent="Mozilla/5.0 (Windows NT 10.0; Win64; x64) AppleWebKit/537.36 (KHTML, like Gecko) Chrome/136.0.0.0 Safari/537.36" version="26.2.14">
  <diagram name="Página-1" id="slOkw6GPRxofO1iLQq3W">
    <mxGraphModel dx="1426" dy="767" grid="1" gridSize="10" guides="1" tooltips="1" connect="1" arrows="1" fold="1" page="1" pageScale="1" pageWidth="827" pageHeight="1169" math="0" shadow="0">
      <root>
        <mxCell id="0" />
        <mxCell id="1" parent="0" />
        <mxCell id="pfmA-AaLcBsrG_5Bbyzm-5" value="Círculo" style="swimlane;fontStyle=1;align=center;verticalAlign=middle;childLayout=stackLayout;horizontal=1;startSize=29;horizontalStack=0;resizeParent=1;resizeParentMax=0;resizeLast=0;collapsible=0;marginBottom=0;html=1;whiteSpace=wrap;" vertex="1" parent="1">
          <mxGeometry x="80" y="100" width="190" height="140" as="geometry" />
        </mxCell>
        <mxCell id="pfmA-AaLcBsrG_5Bbyzm-6" value="&lt;div&gt;- radio: int&lt;/div&gt;" style="text;html=1;strokeColor=none;fillColor=none;align=center;verticalAlign=middle;spacingLeft=4;spacingRight=4;overflow=hidden;rotatable=0;points=[[0,0.5],[1,0.5]];portConstraint=eastwest;whiteSpace=wrap;" vertex="1" parent="pfmA-AaLcBsrG_5Bbyzm-5">
          <mxGeometry y="29" width="190" height="25" as="geometry" />
        </mxCell>
        <mxCell id="pfmA-AaLcBsrG_5Bbyzm-7" value="&lt;div&gt;+ Círculo(int radio)&lt;/div&gt;&lt;div&gt;+ calcularArea(): double&lt;/div&gt;&lt;div&gt;+ calcularPerimetro(): double&lt;/div&gt;&lt;div&gt;&lt;br&gt;&lt;/div&gt;" style="text;html=1;strokeColor=none;fillColor=none;align=left;verticalAlign=middle;spacingLeft=4;spacingRight=4;overflow=hidden;rotatable=0;points=[[0,0.5],[1,0.5]];portConstraint=eastwest;whiteSpace=wrap;" vertex="1" parent="pfmA-AaLcBsrG_5Bbyzm-5">
          <mxGeometry y="54" width="190" height="86" as="geometry" />
        </mxCell>
        <mxCell id="pfmA-AaLcBsrG_5Bbyzm-8" value="Rectángulo" style="swimlane;fontStyle=1;align=center;verticalAlign=middle;childLayout=stackLayout;horizontal=1;startSize=29;horizontalStack=0;resizeParent=1;resizeParentMax=0;resizeLast=0;collapsible=0;marginBottom=0;html=1;whiteSpace=wrap;" vertex="1" parent="1">
          <mxGeometry x="570" y="380" width="190" height="160" as="geometry" />
        </mxCell>
        <mxCell id="pfmA-AaLcBsrG_5Bbyzm-9" value="&lt;div&gt;- base: int&lt;/div&gt;&lt;div&gt;- altura: int&lt;/div&gt;&lt;div&gt;&lt;br&gt;&lt;/div&gt;" style="text;html=1;strokeColor=none;fillColor=none;align=center;verticalAlign=middle;spacingLeft=4;spacingRight=4;overflow=hidden;rotatable=0;points=[[0,0.5],[1,0.5]];portConstraint=eastwest;whiteSpace=wrap;" vertex="1" parent="pfmA-AaLcBsrG_5Bbyzm-8">
          <mxGeometry y="29" width="190" height="51" as="geometry" />
        </mxCell>
        <mxCell id="pfmA-AaLcBsrG_5Bbyzm-10" value="&lt;div&gt;+ Rectángulo(int base, int altura)&lt;/div&gt;&lt;div&gt;+ calcularArea(): double&lt;/div&gt;&lt;div&gt;+ calcularPerimetro(): double&lt;/div&gt;&lt;div&gt;&lt;br&gt;&lt;/div&gt;" style="text;html=1;strokeColor=none;fillColor=none;align=left;verticalAlign=middle;spacingLeft=4;spacingRight=4;overflow=hidden;rotatable=0;points=[[0,0.5],[1,0.5]];portConstraint=eastwest;whiteSpace=wrap;" vertex="1" parent="pfmA-AaLcBsrG_5Bbyzm-8">
          <mxGeometry y="80" width="190" height="80" as="geometry" />
        </mxCell>
        <mxCell id="pfmA-AaLcBsrG_5Bbyzm-11" value="Cuadrado" style="swimlane;fontStyle=1;align=center;verticalAlign=middle;childLayout=stackLayout;horizontal=1;startSize=29;horizontalStack=0;resizeParent=1;resizeParentMax=0;resizeLast=0;collapsible=0;marginBottom=0;html=1;whiteSpace=wrap;" vertex="1" parent="1">
          <mxGeometry x="590" y="120" width="170" height="130" as="geometry" />
        </mxCell>
        <mxCell id="pfmA-AaLcBsrG_5Bbyzm-12" value="&lt;div&gt;- lado: int&lt;/div&gt;" style="text;html=1;strokeColor=none;fillColor=none;align=center;verticalAlign=middle;spacingLeft=4;spacingRight=4;overflow=hidden;rotatable=0;points=[[0,0.5],[1,0.5]];portConstraint=eastwest;whiteSpace=wrap;" vertex="1" parent="pfmA-AaLcBsrG_5Bbyzm-11">
          <mxGeometry y="29" width="170" height="25" as="geometry" />
        </mxCell>
        <mxCell id="pfmA-AaLcBsrG_5Bbyzm-13" value="&lt;div&gt;+ Cuadrado(int lado)&lt;/div&gt;&lt;div&gt;+ calcularArea(): double&lt;/div&gt;&lt;div&gt;+ calcularPerimetro(): double&lt;/div&gt;&lt;div&gt;&lt;br&gt;&lt;/div&gt;" style="text;html=1;strokeColor=none;fillColor=none;align=left;verticalAlign=middle;spacingLeft=4;spacingRight=4;overflow=hidden;rotatable=0;points=[[0,0.5],[1,0.5]];portConstraint=eastwest;whiteSpace=wrap;" vertex="1" parent="pfmA-AaLcBsrG_5Bbyzm-11">
          <mxGeometry y="54" width="170" height="76" as="geometry" />
        </mxCell>
        <mxCell id="pfmA-AaLcBsrG_5Bbyzm-14" value="TriánguloRectángulo" style="swimlane;fontStyle=1;align=center;verticalAlign=middle;childLayout=stackLayout;horizontal=1;startSize=29;horizontalStack=0;resizeParent=1;resizeParentMax=0;resizeLast=0;collapsible=0;marginBottom=0;html=1;whiteSpace=wrap;" vertex="1" parent="1">
          <mxGeometry x="80" y="390" width="210" height="200" as="geometry" />
        </mxCell>
        <mxCell id="pfmA-AaLcBsrG_5Bbyzm-15" value="&lt;div&gt;- base: int&lt;/div&gt;&lt;div&gt;- altura: int&lt;/div&gt;&lt;div&gt;&lt;br&gt;&lt;/div&gt;" style="text;html=1;strokeColor=none;fillColor=none;align=center;verticalAlign=middle;spacingLeft=4;spacingRight=4;overflow=hidden;rotatable=0;points=[[0,0.5],[1,0.5]];portConstraint=eastwest;whiteSpace=wrap;" vertex="1" parent="pfmA-AaLcBsrG_5Bbyzm-14">
          <mxGeometry y="29" width="210" height="61" as="geometry" />
        </mxCell>
        <mxCell id="pfmA-AaLcBsrG_5Bbyzm-16" value="&lt;div&gt;+ TriánguloRectángulo(int base, int altura)&lt;/div&gt;&lt;div&gt;+ calcularArea(): double&lt;/div&gt;&lt;div&gt;+ calcularPerimetro(): double&lt;/div&gt;&lt;div&gt;+ calcularHipotenusa(): double&lt;/div&gt;&lt;div&gt;+ determinarTipoTriángulo(): void&lt;/div&gt;&lt;div&gt;&lt;br&gt;&lt;/div&gt;" style="text;html=1;strokeColor=none;fillColor=none;align=left;verticalAlign=middle;spacingLeft=4;spacingRight=4;overflow=hidden;rotatable=0;points=[[0,0.5],[1,0.5]];portConstraint=eastwest;whiteSpace=wrap;" vertex="1" parent="pfmA-AaLcBsrG_5Bbyzm-14">
          <mxGeometry y="90" width="210" height="110" as="geometry" />
        </mxCell>
        <mxCell id="pfmA-AaLcBsrG_5Bbyzm-23" value="PruebaFiguras" style="swimlane;fontStyle=1;align=center;verticalAlign=middle;childLayout=stackLayout;horizontal=1;startSize=29;horizontalStack=0;resizeParent=1;resizeParentMax=0;resizeLast=0;collapsible=0;marginBottom=0;html=1;whiteSpace=wrap;" vertex="1" parent="1">
          <mxGeometry x="350" y="260" width="160" height="90" as="geometry" />
        </mxCell>
        <mxCell id="pfmA-AaLcBsrG_5Bbyzm-24" value="&lt;div&gt;+ main(String[] args): void&lt;/div&gt;&lt;div&gt;&lt;br&gt;&lt;/div&gt;" style="text;html=1;strokeColor=none;fillColor=none;align=center;verticalAlign=middle;spacingLeft=4;spacingRight=4;overflow=hidden;rotatable=0;points=[[0,0.5],[1,0.5]];portConstraint=eastwest;whiteSpace=wrap;" vertex="1" parent="pfmA-AaLcBsrG_5Bbyzm-23">
          <mxGeometry y="29" width="160" height="61" as="geometry" />
        </mxCell>
        <mxCell id="pfmA-AaLcBsrG_5Bbyzm-27" value="" style="endArrow=none;html=1;rounded=0;entryX=0.018;entryY=0.131;entryDx=0;entryDy=0;entryPerimeter=0;exitX=1;exitY=0;exitDx=0;exitDy=0;" edge="1" parent="1" source="pfmA-AaLcBsrG_5Bbyzm-23" target="pfmA-AaLcBsrG_5Bbyzm-11">
          <mxGeometry width="50" height="50" relative="1" as="geometry">
            <mxPoint x="510" y="270" as="sourcePoint" />
            <mxPoint x="560" y="220" as="targetPoint" />
          </mxGeometry>
        </mxCell>
        <mxCell id="pfmA-AaLcBsrG_5Bbyzm-28" value="" style="endArrow=none;html=1;rounded=0;" edge="1" parent="1" source="pfmA-AaLcBsrG_5Bbyzm-14">
          <mxGeometry width="50" height="50" relative="1" as="geometry">
            <mxPoint x="300" y="400" as="sourcePoint" />
            <mxPoint x="350" y="350" as="targetPoint" />
          </mxGeometry>
        </mxCell>
        <mxCell id="pfmA-AaLcBsrG_5Bbyzm-30" value="" style="endArrow=none;html=1;rounded=0;entryX=1.011;entryY=0.107;entryDx=0;entryDy=0;entryPerimeter=0;" edge="1" parent="1" target="pfmA-AaLcBsrG_5Bbyzm-5">
          <mxGeometry width="50" height="50" relative="1" as="geometry">
            <mxPoint x="350" y="260" as="sourcePoint" />
            <mxPoint x="400" y="210" as="targetPoint" />
          </mxGeometry>
        </mxCell>
        <mxCell id="pfmA-AaLcBsrG_5Bbyzm-31" value="" style="endArrow=none;html=1;rounded=0;exitX=-0.011;exitY=0.056;exitDx=0;exitDy=0;exitPerimeter=0;" edge="1" parent="1" source="pfmA-AaLcBsrG_5Bbyzm-8">
          <mxGeometry width="50" height="50" relative="1" as="geometry">
            <mxPoint x="460" y="400" as="sourcePoint" />
            <mxPoint x="510" y="350" as="targetPoint" />
          </mxGeometry>
        </mxCell>
      </root>
    </mxGraphModel>
  </diagram>
</mxfile>
